<?xml version="1.0" standalone="no"?>
<!DOCTYPE svg PUBLIC "-//W3C//DTD SVG 20010904//EN"
 "http://www.w3.org/TR/2001/REC-SVG-20010904/DTD/svg10.dtd">
<svg version="1.0" xmlns="http://www.w3.org/2000/svg"
 width="500.000000pt" height="500.000000pt" viewBox="0 0 500.000000 500.000000"
 preserveAspectRatio="xMidYMid meet">

<g transform="translate(0.000000,500.000000) scale(0.100000,-0.100000)"
fill="#000000" stroke="none">
<path d="M840 3507 l0 -45 77 -11 c121 -18 147 -44 163 -162 13 -99 12 -1264
0 -1354 -6 -38 -17 -80 -26 -93 -21 -31 -70 -60 -116 -66 -131 -20 -118 -13
-118 -62 l0 -44 430 0 430 0 0 43 0 43 -105 11 c-134 14 -172 32 -205 99 l-25
49 0 305 0 305 230 6 c188 5 246 11 315 28 282 72 421 240 423 511 1 106 -20
178 -72 251 -66 92 -186 163 -351 205 -56 15 -136 18 -557 21 l-493 4 0 -44z
m870 -77 c91 -15 184 -62 221 -113 47 -65 63 -135 63 -267 -1 -140 -23 -208
-91 -281 -80 -85 -198 -119 -420 -119 l-143 0 0 379 c0 332 2 382 16 395 12
13 41 16 152 16 75 0 166 -5 202 -10z"/>
<path d="M2520 3505 l0 -45 38 0 c62 -1 126 -20 153 -46 53 -51 54 -62 54
-814 l0 -695 -22 -48 c-27 -58 -72 -81 -175 -92 l-68 -7 0 -44 0 -44 395 0
395 0 0 44 0 44 -67 7 c-180 19 -203 66 -203 420 l0 180 86 98 c48 54 90 95
94 90 51 -57 501 -620 522 -652 55 -87 31 -123 -90 -137 l-62 -7 0 -43 0 -44
375 0 375 0 0 44 0 45 -47 7 c-65 9 -103 25 -148 65 -21 19 -196 223 -388 454
-193 231 -358 429 -369 441 -18 21 -17 23 246 326 146 168 282 320 303 337 53
44 100 64 161 69 l52 4 0 44 0 44 -295 0 -295 0 0 -44 0 -43 48 -7 c84 -11
113 -52 79 -113 -19 -34 -631 -772 -640 -772 -15 -1 -2 739 13 779 26 71 68
98 165 107 l65 6 0 43 0 44 -375 0 -375 0 0 -45z"/>
</g>
</svg>
